<svg width="26" height="20" viewBox="0 0 26 20" fill="none" xmlns="http://www.w3.org/2000/svg">
<path d="M12.6539 0.00507479C15.1249 0.00507479 17.588 0.00507479 20.059 0.00507479C22.483 0.00507479 24.4613 1.55923 25.0087 3.89823C25.1025 4.28677 25.1338 4.70639 25.1338 5.11047C25.1416 8.33534 25.1494 11.568 25.1338 14.7929C25.126 17.1396 23.7341 19.0279 21.5368 19.6651C21.0755 19.7972 20.5829 19.8749 20.0981 19.8749C15.1249 19.8905 10.1517 19.8905 5.17855 19.8827C2.64505 19.8749 0.533795 18.0488 0.189739 15.5777C0.150642 15.3135 0.150642 15.0337 0.150642 14.7618C0.142822 11.5447 0.142822 8.32757 0.142822 5.11047C0.150642 2.82587 1.47213 0.937567 3.55992 0.277052C4.09947 0.106095 4.68592 0.0206163 5.24892 0.0128456C7.71987 -0.0104668 10.1908 0.00507479 12.6539 0.00507479ZM22.5768 4.42664C22.5456 4.42664 22.5221 4.41887 22.4908 4.41887C22.4204 4.48104 22.3501 4.55098 22.2797 4.61314C20.4578 6.42373 18.6358 8.23432 16.8139 10.0371C16.5011 10.348 16.1962 10.6666 15.8677 10.9463C14.8747 11.7856 13.7174 12.1819 12.4194 12.1275C11.051 12.0653 9.91714 11.498 8.95534 10.5345C6.98484 8.5607 4.9987 6.59469 3.02038 4.62868C2.94219 4.55098 2.85617 4.47327 2.71542 4.34117C2.69196 4.65977 2.66069 4.90066 2.66069 5.13378C2.66069 8.33534 2.66069 11.5291 2.66069 14.7307C2.66069 14.9638 2.66851 15.1969 2.71542 15.4223C2.9891 16.6345 3.98217 17.3883 5.28802 17.3883C10.183 17.3883 15.078 17.3883 19.973 17.3883C21.5447 17.3883 22.6003 16.3548 22.6081 14.7929C22.6159 11.5524 22.6159 8.3198 22.6081 5.07939C22.6159 4.86181 22.5925 4.64423 22.5768 4.42664ZM4.50608 2.53835C4.59991 2.65491 4.62337 2.69376 4.65465 2.72484C6.7268 4.79187 8.79896 6.8589 10.8867 8.91038C11.9033 9.90504 13.4046 9.8895 14.429 8.88707C16.4933 6.85113 18.542 4.80741 20.5985 2.7637C20.6454 2.71707 20.6845 2.65491 20.7627 2.54612C15.3204 2.53835 9.95623 2.53835 4.50608 2.53835Z" fill="black"/>
</svg>
