<svg width="23" height="22" viewBox="0 0 23 22" fill="none" xmlns="http://www.w3.org/2000/svg">
<path d="M0.893066 22C1.06334 21.3625 1.22025 20.7629 1.38051 20.1598C1.70102 18.9503 2.02487 17.7407 2.33537 16.5243C2.36207 16.4209 2.34538 16.2796 2.2953 16.1866C1.28035 14.274 0.826293 12.2236 1.0166 10.0629C1.35046 6.34122 3.0899 3.47756 6.18484 1.5271C8.05448 0.348559 10.1144 -0.140779 12.2946 0.0384153C15.7467 0.324437 18.4511 1.98543 20.3808 4.94558C21.7263 7.00975 22.2504 9.32204 22.0735 11.7929C21.7396 16.4898 18.3309 20.532 13.8604 21.5486C11.3397 22.1206 8.93255 21.7829 6.63555 20.5699C6.55543 20.5286 6.43523 20.5148 6.34843 20.5355C4.61567 21.0007 2.88291 21.4693 1.15014 21.938C1.08003 21.9587 1.00658 21.9725 0.893066 22ZM3.4438 19.3948C3.49722 19.3845 3.52393 19.3776 3.55064 19.3707C4.53554 19.1053 5.52044 18.8469 6.50201 18.5712C6.69231 18.5195 6.83254 18.5471 6.99613 18.6505C8.72889 19.7256 10.6052 20.1426 12.6051 19.8979C14.3846 19.6808 15.9471 18.9399 17.3059 17.7304C20.0302 15.3078 21.0419 11.2312 19.7732 7.77477C18.2007 3.48445 13.9739 1.10669 9.63367 2.07847C5.9144 2.91586 2.96637 6.27919 2.78275 10.5213C2.7093 12.2339 3.0899 13.8467 3.9012 15.3492C4.04142 15.6076 4.26177 15.8557 4.29182 16.1245C4.32187 16.3968 4.16161 16.6931 4.08482 16.9791C3.87115 17.7786 3.66081 18.5747 3.4438 19.3948Z" fill="black"/>
<path d="M6.15479 8.45021C6.17148 7.54734 6.51202 6.80644 7.12633 6.18271C7.33333 5.9725 7.57371 5.86567 7.86418 5.87257C8.02109 5.87601 8.17467 5.89669 8.32825 5.88291C8.592 5.86223 8.7556 6.00007 8.84908 6.22406C9.15958 6.97185 9.47007 7.72309 9.75386 8.48122C9.8006 8.60528 9.76053 8.8086 9.68708 8.92921C9.50012 9.23935 9.28311 9.53226 9.05608 9.81139C8.89582 10.0078 8.87245 10.1801 9.006 10.4076C9.86403 11.8825 11.0526 12.9611 12.6084 13.5917C12.8555 13.6916 12.989 13.6675 13.1559 13.4573C13.423 13.123 13.6935 12.7853 13.9472 12.4407C14.0874 12.2512 14.2544 12.165 14.4647 12.2684C15.2259 12.6371 15.9838 13.0093 16.7383 13.3953C16.8151 13.4366 16.8852 13.5745 16.8886 13.671C16.9186 14.4808 16.6849 15.1596 15.9871 15.6283C15.1157 16.2141 14.2009 16.2624 13.2294 15.9798C10.7354 15.2561 8.88581 13.6434 7.4001 11.5206C6.90932 10.8176 6.46194 10.094 6.27164 9.2359C6.21154 8.9809 6.19151 8.71211 6.15479 8.45021Z" fill="black"/>
</svg>
