<svg width="26" height="25" viewBox="0 0 26 25" fill="none" xmlns="http://www.w3.org/2000/svg">
<path d="M9.87154 9.41846C11.22 11.745 13.0317 13.5455 15.3729 14.8855C15.5797 14.4827 15.77 14.0963 15.9685 13.7099C16.3573 12.9371 16.8785 12.6905 17.7058 12.896C19.3851 13.3071 21.0562 13.7181 22.7273 14.1374C23.4635 14.3265 23.8358 14.8033 23.8358 15.5597C23.8358 17.6643 23.8358 19.7607 23.8358 21.8653C23.8358 23.5753 22.5701 24.7263 20.8659 24.5947C15.9602 24.2165 11.6253 22.449 7.91092 19.2674C3.91522 15.8392 1.40033 11.5313 0.440699 6.37663C0.258701 5.38187 0.142883 4.36245 0.142883 3.35946C0.151156 2.10985 1.34242 1.02465 2.59987 1.00821C4.86658 0.991769 7.12501 0.99999 9.38345 1.00821C9.92945 1.00821 10.4424 1.39461 10.583 1.95364C11.0463 3.73764 11.493 5.52163 11.9314 7.30562C12.0721 7.88932 11.766 8.4648 11.2034 8.76077C10.9883 8.87586 10.7567 8.97452 10.5416 9.08961C10.3265 9.18827 10.1197 9.29514 9.87154 9.41846ZM21.172 16.4722C20.1627 16.2174 19.1783 15.9707 18.1938 15.7241C18.0118 15.6748 17.9126 15.7159 17.8381 15.8967C17.6478 16.316 17.4328 16.7271 17.2259 17.1381C16.8123 17.952 16.1174 18.1987 15.2984 17.804C11.5095 16.0118 8.71337 13.2413 6.92647 9.46779C6.5542 8.68678 6.79411 7.97976 7.58001 7.59336C8.01019 7.37961 8.45691 7.17408 8.87882 6.95211C8.96155 6.91101 9.05255 6.7548 9.036 6.68081C8.79609 5.66961 8.53964 4.66663 8.28319 3.66365C6.43838 3.66365 4.61012 3.66365 2.79014 3.66365C3.36922 14.0634 12.3864 21.6515 21.1803 21.9064C21.172 20.106 21.172 18.3055 21.172 16.4722Z" fill="black"/>
<path d="M14.6035 4.95438C15.4887 4.95438 16.3408 4.95438 17.2177 4.95438C17.2177 5.82582 17.2177 6.68904 17.2177 7.56871C16.3408 7.56871 15.4804 7.56871 14.6035 7.56871C14.6035 6.68904 14.6035 5.83404 14.6035 4.95438Z" fill="black"/>
<path d="M21.1885 4.96259C21.1885 5.82581 21.1885 6.68081 21.1885 7.56047C20.3116 7.56047 19.4513 7.56047 18.5661 7.56047C18.5661 6.69725 18.5661 5.84225 18.5661 4.96259C19.4347 4.96259 20.3034 4.96259 21.1885 4.96259Z" fill="black"/>
<path d="M25.143 7.56047C24.2743 7.56047 23.414 7.56047 22.5288 7.56047C22.5288 6.68903 22.5288 5.83403 22.5288 4.96259C23.3892 4.96259 24.2495 4.96259 25.143 4.96259C25.143 5.81759 25.143 6.68081 25.143 7.56047Z" fill="black"/>
</svg>
